<?xml version="1.0" standalone="no"?>
<!DOCTYPE svg PUBLIC "-//W3C//DTD SVG 20010904//EN"
 "http://www.w3.org/TR/2001/REC-SVG-20010904/DTD/svg10.dtd">
<svg version="1.0" xmlns="http://www.w3.org/2000/svg"
 width="411.000000pt" height="296.000000pt" viewBox="0 0 411.000000 296.000000"
 preserveAspectRatio="xMidYMid meet">

<g transform="translate(0.000000,296.000000) scale(0.100000,-0.100000)"
fill="#000000" stroke="none">
<path d="M220 2705 c0 -13 209 -15 1825 -15 1616 0 1825 2 1825 15 0 13 -209
15 -1825 15 -1616 0 -1825 -2 -1825 -15z"/>
<path d="M1996 2415 c-3 -9 -6 -33 -6 -53 0 -20 -4 -42 -8 -48 -10 -16 -100
-44 -139 -44 -32 0 -40 -11 -34 -44 1 -4 -5 -13 -14 -20 -8 -6 -24 -33 -34
-61 -13 -33 -24 -49 -34 -47 -11 2 -14 -3 -10 -17 3 -14 -3 -22 -24 -30 -15
-6 -19 -10 -7 -7 12 2 21 -2 21 -9 0 -9 -17 -12 -54 -11 -45 1 -51 3 -36 14
13 9 14 12 2 12 -8 0 -22 -9 -31 -20 -16 -18 -29 -19 -133 -17 l-115 2 0 -201
0 -201 108 -41 c96 -37 109 -45 127 -78 11 -21 34 -53 52 -73 18 -20 33 -39
33 -43 0 -4 9 -10 20 -13 11 -3 20 -12 20 -20 0 -18 62 -71 118 -99 84 -43
160 -60 262 -60 143 1 263 47 373 144 40 35 46 45 35 57 -10 13 -9 15 7 11 20
-3 54 39 82 104 10 21 33 34 122 69 l111 43 0 200 0 201 -108 2 c-199 3 -251
6 -246 14 3 5 1 9 -5 9 -5 0 -13 -5 -16 -10 -4 -6 -21 -10 -39 -8 -30 2 -33 5
-32 35 1 24 5 32 16 28 28 -8 75 -15 63 -9 -23 10 11 32 40 27 29 -6 47 -23
25 -24 -7 0 -4 -4 7 -8 11 -5 20 -14 20 -21 0 -7 6 -15 13 -18 11 -3 12 0 2
19 -20 36 -101 119 -117 119 -8 0 -12 4 -9 8 3 5 -15 21 -39 37 -25 15 -45 34
-45 41 0 9 -12 14 -32 15 -18 0 -58 8 -88 17 l-55 18 -5 59 -5 60 -76 3 c-63
2 -78 0 -83 -13z m114 -30 c0 -8 6 -15 13 -15 10 0 17 -40 26 -152 8 -84 18
-159 23 -165 6 -7 8 -20 4 -28 -5 -13 -23 -15 -103 -13 l-98 3 3 25 c2 14 11
94 20 178 12 108 20 152 29 152 7 0 13 7 13 15 0 10 11 15 35 15 24 0 35 -5
35 -15z m-220 -150 c7 -9 15 -42 17 -73 3 -31 8 -75 13 -96 5 -22 7 -44 4 -48
-3 -4 -29 -8 -59 -8 -30 0 -56 4 -59 8 -3 4 -1 26 4 48 5 21 10 64 11 94 4 77
38 113 69 75z m87 0 c0 -8 -6 -15 -13 -15 -8 0 -11 6 -8 15 4 8 9 15 13 15 4
0 8 -7 8 -15z m334 -2 c8 -10 16 -43 18 -73 1 -30 6 -73 11 -94 5 -22 7 -44 4
-48 -7 -11 -111 -10 -118 0 -3 5 -1 24 4 43 5 19 11 61 13 95 5 82 35 116 68
77z m-271 -298 c0 -8 -6 -15 -12 -15 -7 -1 -1 -7 14 -16 80 -43 57 -144 -32
-144 -52 0 -70 27 -69 98 2 51 11 73 24 53 10 -17 33 -1 28 20 -4 15 0 19 21
19 16 0 26 -5 26 -15z m353 -57 c39 -46 3 -118 -60 -118 -59 0 -91 57 -62 111
22 42 89 46 122 7z m-892 -2 c15 -32 -4 -65 -42 -73 -20 -4 -29 -11 -29 -24 0
-12 -7 -19 -20 -19 -18 0 -20 7 -20 70 l0 70 50 0 c43 0 52 -3 61 -24z m137
12 c-3 -7 -21 -14 -41 -16 -47 -4 -48 -22 -2 -22 24 0 35 -5 35 -15 0 -10 -11
-15 -35 -15 -24 0 -35 -5 -35 -15 0 -11 11 -15 40 -15 29 0 40 -4 40 -15 0
-12 -13 -15 -55 -15 l-55 0 0 70 0 70 56 0 c40 0 55 -4 52 -12z m132 -3 c0 -8
-9 -15 -20 -15 -18 0 -20 -7 -20 -55 0 -42 -3 -55 -15 -55 -12 0 -15 13 -15
55 0 52 -1 55 -25 55 -16 0 -25 6 -25 15 0 12 13 15 60 15 47 0 60 -3 60 -15z
m128 3 c15 -15 15 -43 0 -68 -10 -15 -10 -22 0 -32 16 -16 15 -28 -3 -28 -9 0
-27 12 -40 28 -22 25 -25 25 -26 7 -1 -11 -1 -23 0 -27 0 -5 -8 -8 -19 -8 -18
0 -20 7 -20 70 l0 70 48 0 c26 0 53 -5 60 -12z m328 -23 c1 -16 5 -38 9 -49
14 -32 -8 -51 -64 -54 l-51 -3 0 71 0 71 53 -3 c50 -3 52 -4 53 -33z m235 8
c21 -58 22 -59 34 -18 15 51 45 55 59 8 11 -41 22 -42 31 -2 6 27 29 48 40 37
3 -2 -5 -34 -17 -71 -27 -81 -48 -89 -68 -24 l-13 42 -13 -30 c-7 -16 -13 -36
-14 -42 0 -7 -8 -13 -18 -13 -14 0 -23 15 -36 58 -10 31 -21 63 -23 70 -3 6 2
12 11 12 9 0 21 -12 27 -27z m229 -28 l0 -55 35 0 c24 0 35 -5 35 -15 0 -12
-13 -15 -55 -15 l-55 0 0 70 c0 63 2 70 20 70 18 0 20 -7 20 -55z m-125 -135
c3 -5 1 -10 -4 -10 -6 0 -11 5 -11 10 0 6 2 10 4 10 3 0 8 -4 11 -10z m-415
-43 c0 -7 4 -7 12 1 19 19 28 14 28 -18 0 -16 -5 -30 -11 -30 -6 0 -8 7 -5 16
5 14 4 15 -8 5 -11 -9 -15 -9 -19 1 -4 8 -6 7 -6 -4 -2 -34 -21 -18 -21 17 0
26 3 33 15 29 8 -4 15 -11 15 -17z m-190 -7 c0 -27 18 -25 23 3 3 15 5 12 6
-11 1 -29 -2 -33 -21 -30 -17 2 -24 11 -26 31 -2 15 1 27 7 27 6 0 11 -9 11
-20z m81 13 c-11 -5 -11 -7 0 -14 10 -6 11 -9 2 -9 -7 0 -13 -7 -13 -15 0 -8
-4 -15 -10 -15 -5 0 -10 14 -10 30 0 25 4 30 23 29 12 0 16 -3 8 -6z m63 -15
c8 -33 9 -33 -24 -34 -17 -1 -30 0 -30 2 0 1 4 14 10 28 12 32 36 34 44 4z
m-264 -62 c0 -8 -7 -17 -16 -20 -23 -9 -6 -28 19 -20 26 8 39 24 32 42 -4 10
36 12 200 11 115 -1 205 -6 205 -11 0 -5 -4 -6 -10 -3 -5 3 -10 1 -10 -5 0 -6
8 -10 18 -8 9 2 16 10 14 16 -1 8 12 12 35 12 28 0 34 -3 23 -10 -9 -6 -10
-10 -3 -10 6 0 19 -7 27 -16 15 -14 16 -14 16 0 0 9 -4 16 -10 16 -5 0 -10 4
-10 9 0 15 145 7 166 -9 18 -14 18 -14 4 5 -15 19 -14 19 10 4 14 -9 25 -21
25 -27 0 -6 3 -14 8 -18 4 -4 7 -12 7 -17 0 -6 -12 0 -27 14 -14 13 -23 18
-19 12 4 -7 2 -13 -3 -13 -6 0 -11 5 -11 12 0 6 -3 8 -6 5 -4 -4 -19 2 -34 13
-16 11 -32 20 -36 20 -5 0 8 -11 29 -26 21 -14 35 -29 32 -34 -3 -5 0 -12 6
-16 8 -5 9 -3 4 6 -6 10 -4 12 8 7 10 -4 17 -1 17 5 0 9 3 9 11 1 12 -12 3
-37 -10 -28 -5 2 -6 -6 -4 -19 3 -13 -2 -30 -11 -39 -9 -8 -16 -20 -16 -26 0
-5 -4 -12 -10 -16 -5 -3 -8 11 -7 36 1 27 -3 44 -10 46 -7 3 -13 -3 -13 -14 0
-10 -13 -27 -29 -38 -16 -10 -27 -23 -25 -27 3 -4 -1 -8 -8 -8 -9 0 -9 -3 2
-10 12 -8 11 -10 -7 -10 -20 0 -21 3 -13 25 6 16 6 25 0 25 -6 0 -10 6 -10 13
0 20 -71 51 -81 36 -6 -10 -13 -10 -35 -1 -14 7 -29 10 -32 7 -3 -3 0 -5 7 -5
7 0 10 -4 7 -8 -8 -13 29 -31 45 -21 22 14 28 11 26 -12 -1 -12 -12 -26 -27
-33 -14 -6 -31 -16 -38 -23 -7 -7 -18 -13 -23 -13 -5 0 -9 -4 -9 -9 0 -5 9 -7
20 -4 24 6 28 -18 5 -37 -8 -7 -15 -9 -15 -5 0 5 -8 1 -18 -8 -10 -10 -22 -14
-25 -11 -4 4 -9 -1 -13 -10 -3 -9 -10 -14 -14 -11 -4 3 -10 -10 -14 -28 -5
-25 -9 -29 -16 -17 -8 13 -10 13 -10 -1 0 -25 -67 -49 -105 -38 -16 5 -31 14
-33 19 -2 6 -10 10 -17 10 -7 0 -16 16 -19 35 -4 19 -13 35 -20 35 -6 0 -21 7
-32 15 -19 15 -19 15 1 9 17 -5 17 -4 4 5 -8 5 -33 12 -53 14 -40 4 -96 42
-96 65 0 7 -4 10 -10 7 -13 -8 -25 44 -12 57 6 6 8 17 5 26 -4 10 -2 13 5 8 7
-4 12 -2 12 4 0 6 5 8 12 4 7 -5 9 0 6 14 -4 12 0 23 8 26 7 3 11 12 8 20 -3
8 0 16 8 19 7 2 4 3 -7 1 -11 -2 -27 1 -35 6 -11 7 -1 10 33 10 34 0 47 -4 47
-14z m762 -7 c-2 -8 -9 -18 -15 -24 -6 -5 -9 -6 -5 -1 4 5 3 17 -2 26 -8 15
-6 18 8 15 9 -1 16 -9 14 -16z m-401 -350 c-12 -12 -25 -18 -29 -14 -4 4 2 13
12 21 30 22 43 17 17 -7z"/>
<path d="M2055 2320 c17 -19 19 -19 37 -4 24 23 24 24 -19 24 -36 0 -36 0 -18
-20z"/>
<path d="M2030 2280 c0 -32 1 -33 17 -17 16 16 16 18 0 34 -16 16 -17 15 -17
-17z"/>
<path d="M2100 2294 c-11 -12 -10 -18 3 -32 16 -15 17 -14 17 16 0 36 -2 38
-20 16z"/>
<path d="M2050 2241 l-23 -33 26 -26 26 -26 20 25 c25 30 25 28 -2 63 l-24 29
-23 -32z"/>
<path d="M2019 2136 l-4 -46 25 25 24 25 -21 21 -21 21 -3 -46z"/>
<path d="M2106 2161 c-17 -19 -17 -21 1 -45 25 -35 30 -32 25 12 -5 54 -6 55
-26 33z"/>
<path d="M2045 2088 l-28 -33 53 -3 c29 -2 55 0 58 3 3 3 -8 19 -24 36 l-31
31 -28 -34z"/>
<path d="M1855 2200 c4 -6 11 -8 16 -5 14 9 11 15 -7 15 -8 0 -12 -5 -9 -10z"/>
<path d="M1841 2174 c0 -11 3 -14 6 -6 3 7 2 16 -1 19 -3 4 -6 -2 -5 -13z"/>
<path d="M1881 2174 c0 -11 3 -14 6 -6 3 7 2 16 -1 19 -3 4 -6 -2 -5 -13z"/>
<path d="M1850 2146 c-10 -13 -10 -19 0 -32 12 -14 15 -14 29 0 14 15 14 17 0
32 -14 14 -17 14 -29 0z"/>
<path d="M1830 2091 c0 -34 11 -51 35 -51 24 0 35 17 35 51 0 12 -5 17 -10 14
-6 -4 -8 -16 -4 -28 6 -18 5 -20 -8 -10 -11 10 -17 10 -27 0 -11 -10 -12 -8
-7 10 4 12 2 24 -4 28 -5 3 -10 -2 -10 -14z"/>
<path d="M2275 2200 c4 -6 11 -8 16 -5 14 9 11 15 -7 15 -8 0 -12 -5 -9 -10z"/>
<path d="M2261 2174 c0 -11 3 -14 6 -6 3 7 2 16 -1 19 -3 4 -6 -2 -5 -13z"/>
<path d="M2301 2174 c0 -11 3 -14 6 -6 3 7 2 16 -1 19 -3 4 -6 -2 -5 -13z"/>
<path d="M2270 2146 c-10 -13 -10 -19 0 -32 12 -14 15 -14 29 0 14 15 14 17 0
32 -14 14 -17 14 -29 0z"/>
<path d="M2250 2091 c0 -34 11 -51 35 -51 24 0 35 17 35 51 0 12 -5 17 -10 14
-6 -4 -8 -16 -4 -28 6 -18 5 -20 -8 -10 -11 10 -17 10 -27 0 -11 -10 -12 -8
-7 10 4 12 2 24 -4 28 -5 3 -10 -2 -10 -14z"/>
<path d="M1998 1881 c20 -12 10 -54 -16 -67 -19 -9 -20 -13 -9 -23 18 -14 77
-8 88 10 24 39 -5 89 -52 89 -17 0 -20 -3 -11 -9z"/>
<path d="M2300 1850 c-15 -28 4 -60 35 -60 31 0 50 32 35 60 -6 12 -21 20 -35
20 -14 0 -29 -8 -35 -20z"/>
<path d="M1430 1849 c0 -25 33 -22 38 4 2 12 -3 17 -17 17 -15 0 -21 -6 -21
-21z"/>
<path d="M1830 1850 c0 -21 16 -26 39 -11 18 11 5 31 -20 31 -12 0 -19 -7 -19
-20z"/>
<path d="M2150 1860 c0 -5 11 -10 25 -10 14 0 25 5 25 10 0 6 -11 10 -25 10
-14 0 -25 -4 -25 -10z"/>
<path d="M2150 1805 c0 -12 7 -15 25 -13 14 2 26 8 26 13 0 6 -12 11 -26 13
-18 2 -25 -1 -25 -13z"/>
<path d="M1906 1587 c-17 -12 -16 -14 10 -32 24 -15 27 -16 15 -2 -7 9 -11 24
-7 32 7 18 5 19 -18 2z"/>
<path d="M2425 1569 c-11 -16 -1 -19 13 -3 7 8 8 14 3 14 -5 0 -13 -5 -16 -11z"/>
<path d="M2290 1566 c0 -2 7 -7 16 -10 8 -3 12 -2 9 4 -6 10 -25 14 -25 6z"/>
<path d="M2452 1552 c-9 -6 -5 -12 15 -20 25 -11 26 -11 10 2 -14 10 -15 15
-5 19 7 3 9 6 3 6 -5 0 -16 -3 -23 -7z"/>
<path d="M2406 1532 c17 -9 29 -23 27 -29 -3 -7 0 -13 7 -13 6 0 8 5 5 10 -3
6 0 10 7 10 15 1 -51 39 -67 39 -5 0 4 -8 21 -17z"/>
<path d="M2300 1534 c0 -2 9 -8 20 -14 11 -6 20 -7 20 -2 0 6 -9 12 -20 15
-11 3 -20 3 -20 1z"/>
<path d="M2351 1504 c0 -11 3 -14 6 -6 3 7 2 16 -1 19 -3 4 -6 -2 -5 -13z"/>
<path d="M2510 1506 c0 -2 7 -7 16 -10 8 -3 12 -2 9 4 -6 10 -25 14 -25 6z"/>
<path d="M1698 2133 c7 -3 16 -2 19 1 4 3 -2 6 -13 5 -11 0 -14 -3 -6 -6z"/>
<path d="M1678 2103 c7 -3 16 -2 19 1 4 3 -2 6 -13 5 -11 0 -14 -3 -6 -6z"/>
<path d="M1678 2083 c7 -3 16 -2 19 1 4 3 -2 6 -13 5 -11 0 -14 -3 -6 -6z"/>
<path d="M2468 2083 c7 -3 16 -2 19 1 4 3 -2 6 -13 5 -11 0 -14 -3 -6 -6z"/>
<path d="M2397 2050 c-3 -11 -1 -20 4 -20 5 0 9 8 9 18 0 15 2 15 11 2 9 -12
10 -12 7 -1 -7 23 -25 24 -31 1z"/>
<path d="M2450 2060 c-11 -8 -7 -9 15 -4 24 4 27 3 15 -6 -13 -10 -12 -11 3
-6 10 3 24 6 30 7 13 0 -22 17 -38 18 -5 0 -17 -4 -25 -9z"/>
<path d="M2850 1995 c-9 -10 -9 -15 -1 -15 6 0 11 6 11 13 0 8 4 7 10 -3 6 -9
10 -10 10 -3 0 19 -17 24 -30 8z"/>
<path d="M2824 1980 c1 -9 12 -16 26 -17 21 -1 21 -1 3 3 -12 3 -24 11 -26 17
-2 7 -3 5 -3 -3z"/>
<path d="M209 1777 c-24 -13 -57 -43 -74 -66 -27 -38 -30 -51 -30 -116 0 -65
3 -78 30 -117 42 -59 96 -88 165 -88 76 0 132 28 172 84 l32 46 21 -36 c12
-20 41 -49 65 -65 35 -24 54 -29 101 -29 72 0 97 10 149 56 106 96 79 268 -51
335 -45 23 -122 25 -170 5 -34 -14 -88 -65 -106 -99 -8 -15 -13 -11 -41 28
-58 83 -172 110 -263 62z m591 -31 c0 -6 -4 -17 -9 -25 -7 -11 -14 -8 -34 15
l-26 29 22 6 c24 6 47 -6 47 -25z m-436 -8 c50 -6 84 -13 76 -15 -8 -3 -21 -6
-28 -9 -7 -2 -14 -2 -16 -1 -12 8 -36 -31 -37 -62 0 -29 -2 -32 -9 -16 -8 18
-9 18 -9 2 -1 -10 -5 -16 -10 -13 -5 4 -7 -3 -4 -14 3 -12 0 -20 -6 -20 -7 0
-9 -5 -6 -10 4 -6 1 -17 -5 -25 -7 -8 -10 -22 -6 -30 3 -9 2 -13 -4 -10 -6 3
-10 20 -10 36 0 18 -4 28 -10 24 -6 -4 -8 -12 -4 -18 3 -7 -6 2 -21 18 -14 17
-24 24 -20 18 8 -16 -7 -17 -23 -1 -7 7 -12 9 -12 6 0 -4 7 -13 15 -21 13 -14
13 -19 0 -44 -8 -15 -15 -33 -15 -40 0 -18 -20 -27 -32 -15 -6 6 -12 21 -13
34 -1 13 -3 29 -4 36 0 6 -11 12 -22 12 -20 0 -21 4 -14 38 4 20 8 47 9 60 1
24 11 29 19 10 3 -7 6 -1 6 13 1 30 22 52 43 44 7 -3 22 1 33 9 24 19 27 19
139 4z m386 -3 c7 -9 10 -19 6 -23 -4 -4 -13 1 -20 11 -13 17 -32 25 -21 8 3
-5 1 -12 -5 -16 -12 -7 -4 -25 11 -25 6 0 7 5 3 11 -4 8 1 9 17 4 31 -9 48
-25 28 -25 -8 0 -20 -14 -26 -30 -8 -21 -16 -28 -27 -24 -9 3 -16 3 -16 -1 0
-14 30 -35 52 -35 26 -1 58 -22 58 -39 0 -6 -13 -25 -30 -43 -16 -17 -30 -36
-30 -41 0 -6 -3 -8 -6 -4 -3 3 -7 28 -8 56 -3 42 -9 55 -34 79 -17 16 -33 28
-35 26 -2 -2 -9 14 -16 36 -12 42 -20 47 -52 29 -18 -9 -20 -8 -17 16 3 26 6
27 61 30 32 1 61 5 64 9 11 11 30 7 43 -9z m80 -5 c0 -5 -4 -10 -10 -10 -5 0
-10 5 -10 10 0 6 5 10 10 10 6 0 10 -4 10 -10z m-385 -80 c3 -5 -4 -11 -17
-11 l-23 -2 23 -4 c28 -5 30 -39 2 -48 -10 -3 -30 0 -42 7 -21 11 -21 12 -4
16 14 3 16 6 6 12 -7 4 -10 15 -7 24 7 18 52 22 62 6z m93 -2 c9 -9 12 -9 12
0 0 7 16 12 40 12 41 0 57 -19 18 -21 -17 -1 -19 -2 -5 -6 9 -2 17 -9 17 -15
0 -5 -7 -8 -15 -4 -8 3 -15 1 -15 -4 0 -5 10 -11 23 -13 12 -2 3 -5 -20 -6
-24 0 -42 2 -40 7 3 9 -6 12 -38 12 -16 0 -25 -6 -25 -16 0 -32 -25 -6 -28 29
-3 36 -2 37 30 37 19 0 39 -5 46 -12z m-78 -78 c25 0 55 2 68 5 12 2 22 0 22
-5 0 -5 7 -6 17 -3 12 5 14 3 8 -8 -7 -11 -6 -12 6 -3 8 6 29 14 47 16 26 4
32 1 32 -13 0 -20 -39 -23 -52 -4 -5 6 -8 6 -8 -2 0 -9 -15 -13 -43 -13 -24 0
-49 6 -56 13 -11 10 -13 10 -7 0 4 -7 2 -13 -3 -13 -6 0 -11 6 -11 13 0 8 -4
7 -10 -3 -9 -13 -10 -13 -10 0 0 10 -3 11 -8 4 -9 -14 -42 -14 -42 0 0 6 -5 4
-10 -4 -9 -13 -11 -13 -20 0 -6 10 -10 11 -10 3 0 -7 -7 -13 -15 -13 -8 0 -15
9 -15 19 0 16 6 18 38 15 20 -3 57 -5 82 -4z m-238 -72 c-7 -7 -12 -8 -12 -2
0 14 12 26 19 19 2 -3 -1 -11 -7 -17z m128 18 c0 -2 -7 -6 -15 -10 -8 -3 -15
-1 -15 4 0 6 7 10 15 10 8 0 15 -2 15 -4z m35 -6 c3 -5 2 -10 -4 -10 -5 0 -13
5 -16 10 -3 6 -2 10 4 10 5 0 13 -4 16 -10z m-1 -36 c8 -20 -12 -46 -28 -37
-6 4 -19 6 -28 5 -21 -4 -24 18 -6 36 17 17 55 15 62 -4z"/>
<path d="M165 1680 c-3 -5 -2 -10 4 -10 5 0 13 5 16 10 3 6 2 10 -4 10 -5 0
-13 -4 -16 -10z"/>
<path d="M140 1629 c0 -9 26 -19 48 -19 14 0 14 2 3 9 -11 7 -10 10 5 13 10 3
2 5 -18 4 -21 0 -38 -3 -38 -7z"/>
<path d="M495 1630 c4 -6 11 -8 16 -5 14 9 11 15 -7 15 -8 0 -12 -5 -9 -10z"/>
<path d="M3305 1786 c-22 -9 -57 -33 -77 -54 -75 -81 -72 -188 8 -268 47 -47
85 -59 164 -52 56 6 111 42 135 89 l16 30 32 -42 c48 -62 88 -81 168 -77 78 4
126 34 159 98 23 46 26 125 6 173 -24 59 -111 117 -176 117 -60 0 -160 -64
-175 -111 -5 -16 -11 -13 -38 23 -58 75 -142 103 -222 74z m523 -28 c22 -22
-4 -47 -43 -42 -19 2 -35 1 -35 -3 0 -5 12 -9 26 -9 30 -2 43 -12 28 -22 -6
-4 -16 -17 -23 -29 -6 -13 -19 -23 -28 -23 -13 0 -13 -3 -3 -15 7 -8 22 -15
34 -15 26 -1 56 -23 56 -42 0 -8 -11 -25 -25 -38 -14 -13 -25 -30 -25 -38 0
-9 -3 -12 -7 -9 -3 4 -7 28 -8 55 -1 38 -8 53 -33 78 -17 18 -34 29 -36 26 -3
-3 -9 9 -12 27 -8 37 -27 49 -49 31 -8 -7 -15 -9 -16 -4 0 5 -2 17 -4 27 -2
13 4 17 28 18 72 3 117 15 117 30 0 13 44 11 58 -3z m-393 -22 c39 -8 60 -14
48 -15 -13 0 -23 -5 -23 -11 0 -5 -7 -10 -15 -10 -16 0 -61 -87 -71 -137 -5
-27 -3 -32 17 -36 23 -5 23 -5 -1 -4 -20 2 -26 8 -30 37 -5 31 -7 33 -16 16
-11 -19 -12 -19 -18 2 -5 14 -12 19 -23 15 -8 -3 -19 0 -24 8 -6 9 -9 10 -9 2
0 -7 7 -16 15 -20 13 -7 12 -14 -6 -51 -29 -59 -39 -57 -53 11 -4 15 -10 25
-15 23 -15 -9 -34 22 -26 41 5 10 7 21 7 26 -1 4 3 7 9 7 5 0 8 4 4 9 -3 5 3
25 13 43 14 25 26 33 47 33 16 1 30 6 33 13 5 15 48 14 137 -2z m425 -6 c0 -5
-4 -10 -10 -10 -5 0 -10 5 -10 10 0 6 5 10 10 10 6 0 10 -4 10 -10z m-355 -80
c3 -5 0 -10 -7 -10 -10 0 -10 -2 1 -9 19 -12 6 -41 -19 -41 -11 0 -20 -3 -20
-7 0 -9 119 -7 128 1 3 3 11 -2 19 -12 8 -9 12 -11 8 -4 -3 6 -1 12 4 12 6 0
11 -6 11 -12 0 -9 4 -8 10 2 9 13 11 13 20 0 5 -8 10 -10 10 -4 0 7 7 14 15
18 10 4 15 -1 15 -14 0 -18 -7 -20 -61 -20 -37 0 -58 4 -54 10 3 6 1 10 -4 10
-6 0 -11 -4 -11 -10 0 -6 -27 -10 -62 -10 l-63 0 -1 55 c-2 54 -1 55 27 55 15
0 31 -4 34 -10z m86 -2 c0 -10 2 -10 6 0 5 13 73 17 73 5 0 -13 -14 -30 -30
-36 -10 -4 -8 -6 8 -6 37 -2 25 -21 -13 -21 -28 0 -35 4 -35 19 0 17 -3 18
-25 8 -14 -7 -25 -15 -25 -19 0 -5 -7 -8 -15 -8 -10 0 -15 11 -15 35 0 33 2
35 35 35 21 0 35 -5 36 -12z m-167 -64 c18 -7 10 -34 -10 -34 -8 0 -14 9 -14
20 0 22 1 23 24 14z m-124 -63 c0 -6 -4 -13 -10 -16 -5 -3 -10 1 -10 9 0 9 5
16 10 16 6 0 10 -4 10 -9z m145 -1 c3 -5 1 -10 -5 -10 -7 0 -8 -6 -1 -18 14
-27 0 -40 -36 -35 -47 7 -38 41 12 48 6 0 9 6 8 13 -4 14 13 16 22 2z m18 -65
c-3 -9 -8 -14 -10 -11 -3 3 -2 9 2 15 9 16 15 13 8 -4z"/>
<path d="M3780 1740 c0 -5 5 -10 11 -10 5 0 7 5 4 10 -3 6 -8 10 -11 10 -2 0
-4 -4 -4 -10z"/>
<path d="M3218 1639 c-4 -11 2 -15 26 -17 22 -2 27 0 16 7 -8 5 -17 8 -21 5
-4 -2 -9 1 -11 8 -3 8 -6 7 -10 -3z"/>
<path d="M3638 1643 c7 -3 16 -2 19 1 4 3 -2 6 -13 5 -11 0 -14 -3 -6 -6z"/>
<path d="M3142 1330 c0 -14 2 -19 5 -12 2 6 2 18 0 25 -3 6 -5 1 -5 -13z"/>
<path d="M3160 1330 c0 -11 4 -20 9 -20 5 0 7 9 4 20 -3 11 -7 20 -9 20 -2 0
-4 -9 -4 -20z"/>
<path d="M3338 1342 c-19 -4 -25 -32 -8 -32 6 0 10 6 10 13 0 8 3 7 10 -3 7
-11 12 -12 20 -4 14 14 -8 32 -32 26z"/>
<path d="M3461 1328 c1 -17 2 -19 6 -5 6 21 23 23 23 1 0 -8 5 -12 10 -9 8 5
7 11 -1 21 -18 22 -39 17 -38 -8z"/>
<path d="M3525 1340 c-3 -5 -1 -10 4 -10 6 0 11 5 11 10 0 6 -2 10 -4 10 -3 0
-8 -4 -11 -10z"/>
<path d="M3670 1331 c0 -12 5 -21 10 -21 6 0 10 6 10 14 0 8 -4 18 -10 21 -5
3 -10 -3 -10 -14z"/>
<path d="M3736 1335 c4 -8 8 -15 10 -15 2 0 4 7 4 15 0 8 -4 15 -10 15 -5 0
-7 -7 -4 -15z"/>
<path d="M3190 1325 c0 -8 4 -15 10 -15 5 0 7 7 4 15 -4 8 -8 15 -10 15 -2 0
-4 -7 -4 -15z"/>
<path d="M3227 1327 c-3 -8 1 -14 9 -14 8 0 14 6 14 14 0 7 -4 13 -9 13 -5 0
-11 -6 -14 -13z"/>
<path d="M3265 1331 c-3 -5 -1 -12 5 -16 5 -3 10 -1 10 5 0 6 4 9 9 5 5 -3 12
-1 16 5 3 5 -3 10 -14 10 -11 0 -22 -4 -26 -9z"/>
<path d="M3391 1324 c0 -11 3 -14 6 -6 3 7 2 16 -1 19 -3 4 -6 -2 -5 -13z"/>
<path d="M3420 1324 c0 -8 5 -12 10 -9 6 3 10 10 10 16 0 5 -4 9 -10 9 -5 0
-10 -7 -10 -16z"/>
<path d="M3550 1324 c0 -8 5 -12 10 -9 6 3 10 10 10 16 0 5 -4 9 -10 9 -5 0
-10 -7 -10 -16z"/>
<path d="M3606 1325 c4 -8 8 -15 10 -15 2 0 4 7 4 15 0 8 -4 15 -10 15 -5 0
-7 -7 -4 -15z"/>
<path d="M3651 1324 c0 -11 3 -14 6 -6 3 7 2 16 -1 19 -3 4 -6 -2 -5 -13z"/>
<path d="M3760 1323 c0 -15 2 -16 10 -3 9 13 11 13 20 0 8 -13 10 -12 10 3 0
10 -8 17 -20 17 -12 0 -20 -7 -20 -17z"/>
<path d="M3817 1323 c4 -11 8 -13 11 -5 2 7 8 10 13 6 5 -3 9 0 9 5 0 6 -9 11
-20 11 -14 0 -18 -5 -13 -17z"/>
<path d="M3860 1325 c0 -8 4 -15 8 -15 5 0 9 7 9 15 0 8 -4 15 -9 15 -4 0 -8
-7 -8 -15z"/>
<path d="M3896 1325 c4 -8 8 -15 10 -15 2 0 4 7 4 15 0 8 -4 15 -10 15 -5 0
-7 -7 -4 -15z"/>
<path d="M3926 1325 c4 -8 8 -15 10 -15 2 0 4 7 4 15 0 8 -4 15 -10 15 -5 0
-7 -7 -4 -15z"/>
<path d="M90 1315 c0 -8 6 -15 13 -15 9 0 9 -2 -1 -8 -8 -6 -2 -9 18 -9 18 0
30 6 30 13 0 17 -17 27 -25 14 -4 -6 -11 -8 -16 -4 -5 3 -7 10 -4 15 4 5 1 9
-4 9 -6 0 -11 -7 -11 -15z"/>
<path d="M335 1321 c-3 -6 -11 -9 -16 -6 -11 7 -25 -23 -15 -32 3 -4 16 4 27
16 12 12 19 25 16 27 -3 3 -8 0 -12 -5z"/>
<path d="M370 1303 c0 -21 3 -24 9 -13 6 8 7 19 4 25 -2 5 4 -1 15 -15 12 -14
24 -21 28 -17 4 4 2 7 -4 7 -7 0 -12 5 -12 11 0 5 5 7 12 3 7 -4 8 -3 4 5 -4
6 -11 9 -16 6 -5 -3 -11 -1 -15 5 -12 19 -25 10 -25 -17z"/>
<path d="M512 1305 c0 -16 2 -22 5 -12 2 9 2 23 0 30 -3 6 -5 -1 -5 -18z"/>
<path d="M660 1305 c0 -14 4 -25 8 -25 4 0 8 11 8 25 0 14 -4 25 -8 25 -4 0
-8 -11 -8 -25z"/>
<path d="M762 1305 c0 -16 2 -22 5 -12 2 9 2 23 0 30 -3 6 -5 -1 -5 -18z"/>
<path d="M201 1312 c-6 -2 -11 -11 -11 -20 1 -15 2 -15 13 -2 7 8 21 17 32 18
11 2 22 6 24 8 5 5 -41 2 -58 -4z"/>
<path d="M485 1310 c3 -5 8 -10 11 -10 2 0 4 5 4 10 0 6 -5 10 -11 10 -5 0 -7
-4 -4 -10z"/>
<path d="M535 1310 c3 -5 8 -10 11 -10 2 0 4 5 4 10 0 6 -5 10 -11 10 -5 0 -7
-4 -4 -10z"/>
<path d="M592 1300 c0 -14 2 -19 5 -12 2 6 2 18 0 25 -3 6 -5 1 -5 -13z"/>
<path d="M611 1298 c0 -21 1 -22 8 -3 8 18 9 18 14 2 4 -15 5 -15 3 -1 -2 27
-26 29 -25 2z"/>
<path d="M691 1298 c0 -21 1 -22 8 -3 8 18 9 18 14 2 4 -15 5 -15 3 -1 -2 27
-26 29 -25 2z"/>
<path d="M734 1295 c-1 -14 2 -25 7 -25 5 0 9 11 9 25 0 33 -15 33 -16 0z"/>
<path d="M810 1298 c0 -10 4 -18 10 -18 5 0 7 8 4 18 -5 16 -5 16 9 0 8 -10
17 -18 20 -18 4 0 4 8 1 18 -5 14 -3 14 10 -2 15 -18 16 -18 16 -2 0 9 4 15 9
11 5 -3 12 -2 15 3 2 4 -18 8 -45 8 -41 0 -49 -3 -49 -18z"/>
<path d="M440 1290 c0 -5 5 -10 11 -10 5 0 7 5 4 10 -3 6 -8 10 -11 10 -2 0
-4 -4 -4 -10z"/>
<path d="M3315 1271 c-3 -5 -1 -12 5 -16 6 -4 7 -11 4 -17 -4 -7 -2 -8 5 -4 8
6 9 12 2 20 -6 7 -8 16 -4 19 3 4 4 7 0 7 -3 0 -8 -4 -12 -9z"/>
<path d="M3356 1267 c3 -10 9 -15 12 -12 3 3 0 11 -7 18 -10 9 -11 8 -5 -6z"/>
<path d="M3452 1250 c0 -14 2 -19 5 -12 2 6 2 18 0 25 -3 6 -5 1 -5 -13z"/>
<path d="M3507 1250 c-3 -11 -1 -20 4 -20 5 0 9 9 9 20 0 11 -2 20 -4 20 -2 0
-6 -9 -9 -20z"/>
<path d="M3650 1248 c0 -19 2 -20 10 -8 13 19 13 30 0 30 -5 0 -10 -10 -10
-22z"/>
<path d="M3742 1250 c0 -14 2 -19 5 -12 2 6 2 18 0 25 -3 6 -5 1 -5 -13z"/>
<path d="M3476 1245 c-3 -8 -1 -15 4 -15 6 0 10 7 10 15 0 8 -2 15 -4 15 -2 0
-6 -7 -10 -15z"/>
<path d="M3571 1244 c0 -11 3 -14 6 -6 3 7 2 16 -1 19 -3 4 -6 -2 -5 -13z"/>
<path d="M3686 1251 c-4 -7 -5 -15 -2 -18 9 -9 19 4 14 18 -4 11 -6 11 -12 0z"/>
<path d="M3716 1245 c-3 -8 -1 -15 4 -15 6 0 10 7 10 15 0 8 -2 15 -4 15 -2 0
-6 -7 -10 -15z"/>
<path d="M3776 1245 c4 -8 8 -15 10 -15 2 0 4 7 4 15 0 8 -4 15 -10 15 -5 0
-7 -7 -4 -15z"/>
<path d="M200 825 c0 -13 209 -15 1820 -15 1611 0 1820 2 1820 15 0 13 -209
15 -1820 15 -1611 0 -1820 -2 -1820 -15z"/>
<path d="M550 495 l0 -155 35 0 c35 0 35 0 35 45 l0 45 46 0 c88 0 134 40 134
116 0 76 -46 104 -171 104 l-79 0 0 -155z m164 79 c38 -37 7 -84 -55 -84 l-39
0 0 50 0 50 39 0 c23 0 46 -7 55 -16z"/>
<path d="M890 495 l0 -155 125 0 125 0 0 30 0 29 -82 3 -83 3 -3 33 -3 32 75
0 76 0 0 30 0 30 -75 0 -75 0 0 30 0 30 80 0 80 0 0 30 0 30 -120 0 -120 0 0
-155z"/>
<path d="M1210 620 c0 -29 2 -30 45 -30 l45 0 0 -125 0 -125 40 0 40 0 0 125
0 125 45 0 c43 0 45 1 45 30 l0 30 -130 0 -130 0 0 -30z"/>
<path d="M1560 495 l0 -155 35 0 c35 0 35 0 35 45 0 44 1 45 33 45 28 0 35 -6
56 -45 23 -43 26 -45 67 -45 l43 0 -31 50 -31 50 22 24 c26 28 36 81 22 118
-19 49 -64 68 -163 68 l-88 0 0 -155z m170 75 c24 -24 24 -29 4 -58 -12 -17
-25 -22 -60 -22 l-44 0 0 50 0 50 40 0 c27 0 47 -7 60 -20z"/>
<path d="M1995 636 c-42 -18 -83 -69 -91 -111 -15 -84 51 -172 139 -182 59 -7
106 10 147 52 61 63 50 175 -23 227 -38 27 -128 35 -172 14z m133 -78 c42 -40
22 -127 -34 -148 -73 -28 -145 72 -98 138 32 46 88 50 132 10z"/>
<path d="M2324 637 c-2 -7 -3 -76 -2 -152 l3 -140 100 0 c80 0 107 4 128 18
47 31 47 109 1 132 -21 10 -21 10 2 28 43 32 27 97 -27 116 -46 16 -198 15
-205 -2z m171 -77 c0 -23 -4 -25 -47 -28 -48 -3 -48 -3 -48 28 0 31 0 31 48
28 43 -3 47 -5 47 -28z m13 -114 c6 -27 -24 -46 -70 -46 -37 0 -38 1 -38 36
l0 35 52 -3 c43 -2 54 -7 56 -22z"/>
<path d="M2748 630 c-56 -30 -81 -79 -76 -146 4 -43 11 -61 34 -85 76 -81 195
-78 260 7 23 30 29 47 29 90 0 56 -18 90 -68 128 -39 29 -131 32 -179 6z m150
-76 c54 -61 0 -156 -83 -145 -33 4 -65 48 -65 90 0 81 93 116 148 55z"/>
<path d="M3062 638 c3 -7 26 -77 52 -155 l48 -143 37 0 38 0 29 105 c15 58 31
99 35 92 3 -6 17 -54 30 -105 l24 -93 39 3 39 3 49 145 c26 79 48 148 48 152
0 5 -17 8 -38 8 l-37 0 -29 -112 -30 -113 -30 113 -30 112 -38 0 c-35 0 -38
-2 -48 -42 -51 -196 -48 -195 -84 -50 l-22 87 -43 3 c-33 2 -42 0 -39 -10z"/>
<path d="M3610 495 l0 -155 105 0 105 0 0 35 0 35 -65 0 -65 0 0 120 0 120
-40 0 -40 0 0 -155z"/>
<path d="M1100 150 c0 -7 332 -10 975 -10 643 0 975 3 975 10 0 7 -332 10
-975 10 -643 0 -975 -3 -975 -10z"/>
</g>
</svg>
